<svg width="100" height="40" viewBox="0 0 100 40" fill="none" xmlns="http://www.w3.org/2000/svg">
<path d="M0 8C0 3.58172 3.58172 0 8 0H92C96.4183 0 100 3.58172 100 8V32C100 36.4183 96.4183 40 92 40H8C3.58172 40 0 36.4183 0 32V8Z" fill="#E1F5FE"/>
<path d="M19.212 25V16.204H20.316V19.888H24.42V16.204H25.536V25H24.42V20.848H20.316V25H19.212ZM30.5665 25.156C30.0385 25.156 29.5425 25.024 29.0785 24.76C28.6145 24.488 28.2425 24.1 27.9625 23.596C27.6905 23.084 27.5545 22.468 27.5545 21.748C27.5545 21.02 27.6905 20.404 27.9625 19.9C28.2425 19.388 28.6145 18.996 29.0785 18.724C29.5425 18.452 30.0385 18.316 30.5665 18.316C30.9665 18.316 31.3465 18.392 31.7065 18.544C32.0745 18.696 32.3985 18.92 32.6785 19.216C32.9585 19.512 33.1785 19.872 33.3385 20.296C33.4985 20.72 33.5785 21.204 33.5785 21.748C33.5785 22.468 33.4385 23.084 33.1585 23.596C32.8785 24.1 32.5105 24.488 32.0545 24.76C31.5985 25.024 31.1025 25.156 30.5665 25.156ZM30.5665 24.244C30.9425 24.244 31.2705 24.14 31.5505 23.932C31.8385 23.724 32.0625 23.432 32.2225 23.056C32.3825 22.68 32.4625 22.244 32.4625 21.748C32.4625 21.244 32.3825 20.804 32.2225 20.428C32.0625 20.052 31.8385 19.76 31.5505 19.552C31.2705 19.344 30.9425 19.24 30.5665 19.24C30.1905 19.24 29.8585 19.344 29.5705 19.552C29.2905 19.76 29.0705 20.052 28.9105 20.428C28.7585 20.804 28.6825 21.244 28.6825 21.748C28.6825 22.244 28.7585 22.68 28.9105 23.056C29.0705 23.432 29.2905 23.724 29.5705 23.932C29.8585 24.14 30.1905 24.244 30.5665 24.244ZM36.8338 25L34.4818 18.484H35.6218L36.8458 22.192C36.9498 22.512 37.0498 22.836 37.1458 23.164C37.2498 23.484 37.3498 23.8 37.4458 24.112H37.5058C37.6098 23.8 37.7098 23.484 37.8058 23.164C37.9098 22.836 38.0098 22.512 38.1058 22.192L39.3418 18.484H40.4218L38.1178 25H36.8338ZM44.4456 25.156C43.8616 25.156 43.3336 25.02 42.8616 24.748C42.3896 24.476 42.0136 24.088 41.7336 23.584C41.4616 23.072 41.3256 22.46 41.3256 21.748C41.3256 21.212 41.4056 20.736 41.5656 20.32C41.7256 19.896 41.9416 19.536 42.2136 19.24C42.4936 18.936 42.8096 18.708 43.1616 18.556C43.5136 18.396 43.8736 18.316 44.2416 18.316C44.8016 18.316 45.2736 18.44 45.6576 18.688C46.0416 18.936 46.3336 19.292 46.5336 19.756C46.7416 20.212 46.8456 20.752 46.8456 21.376C46.8456 21.496 46.8416 21.608 46.8336 21.712C46.8256 21.816 46.8136 21.912 46.7976 22H42.4056C42.4296 22.464 42.5336 22.868 42.7176 23.212C42.9096 23.548 43.1616 23.812 43.4736 24.004C43.7856 24.188 44.1496 24.28 44.5656 24.28C44.8856 24.28 45.1736 24.236 45.4296 24.148C45.6936 24.052 45.9496 23.924 46.1976 23.764L46.5816 24.496C46.3016 24.68 45.9856 24.836 45.6336 24.964C45.2816 25.092 44.8856 25.156 44.4456 25.156ZM42.3936 21.22H45.8856C45.8856 20.564 45.7416 20.064 45.4536 19.72C45.1736 19.368 44.7776 19.192 44.2656 19.192C43.9616 19.192 43.6736 19.272 43.4016 19.432C43.1376 19.592 42.9136 19.82 42.7296 20.116C42.5536 20.412 42.4416 20.78 42.3936 21.22ZM48.6501 25V18.484H49.5501L49.6581 19.672H49.6821C49.9061 19.256 50.1781 18.928 50.4981 18.688C50.8261 18.44 51.1701 18.316 51.5301 18.316C51.6821 18.316 51.8101 18.328 51.9141 18.352C52.0261 18.368 52.1301 18.404 52.2261 18.46L52.0221 19.408C51.9101 19.376 51.8101 19.352 51.7221 19.336C51.6341 19.312 51.5221 19.3 51.3861 19.3C51.1221 19.3 50.8381 19.416 50.5341 19.648C50.2301 19.872 49.9701 20.26 49.7541 20.812V25H48.6501ZM55.9784 25.156C55.3944 25.156 54.8664 25.02 54.3944 24.748C53.9224 24.476 53.5464 24.088 53.2664 23.584C52.9944 23.072 52.8584 22.46 52.8584 21.748C52.8584 21.212 52.9384 20.736 53.0984 20.32C53.2584 19.896 53.4744 19.536 53.7464 19.24C54.0264 18.936 54.3424 18.708 54.6944 18.556C55.0464 18.396 55.4064 18.316 55.7744 18.316C56.3344 18.316 56.8064 18.44 57.1904 18.688C57.5744 18.936 57.8664 19.292 58.0664 19.756C58.2744 20.212 58.3784 20.752 58.3784 21.376C58.3784 21.496 58.3744 21.608 58.3664 21.712C58.3584 21.816 58.3464 21.912 58.3304 22H53.9384C53.9624 22.464 54.0664 22.868 54.2504 23.212C54.4424 23.548 54.6944 23.812 55.0064 24.004C55.3184 24.188 55.6824 24.28 56.0984 24.28C56.4184 24.28 56.7064 24.236 56.9624 24.148C57.2264 24.052 57.4824 23.924 57.7304 23.764L58.1144 24.496C57.8344 24.68 57.5184 24.836 57.1664 24.964C56.8144 25.092 56.4184 25.156 55.9784 25.156ZM53.9264 21.22H57.4184C57.4184 20.564 57.2744 20.064 56.9864 19.72C56.7064 19.368 56.3104 19.192 55.7984 19.192C55.4944 19.192 55.2064 19.272 54.9344 19.432C54.6704 19.592 54.4464 19.82 54.2624 20.116C54.0864 20.412 53.9744 20.78 53.9264 21.22ZM62.4029 25.156C61.8589 25.156 61.3829 25.024 60.9749 24.76C60.5749 24.496 60.2629 24.112 60.0389 23.608C59.8229 23.096 59.7149 22.476 59.7149 21.748C59.7149 21.044 59.8469 20.436 60.1109 19.924C60.3749 19.412 60.7189 19.016 61.1429 18.736C61.5749 18.456 62.0389 18.316 62.5349 18.316C62.9189 18.316 63.2469 18.384 63.5189 18.52C63.7989 18.648 64.0829 18.832 64.3709 19.072L64.3109 17.956V15.448H65.4149V25H64.5149L64.4189 24.232H64.3829C64.1269 24.488 63.8309 24.708 63.4949 24.892C63.1589 25.068 62.7949 25.156 62.4029 25.156ZM62.6429 24.232C62.9469 24.232 63.2349 24.16 63.5069 24.016C63.7789 23.864 64.0469 23.64 64.3109 23.344V19.924C64.0389 19.676 63.7749 19.5 63.5189 19.396C63.2629 19.292 62.9989 19.24 62.7269 19.24C62.3829 19.24 62.0669 19.348 61.7789 19.564C61.4989 19.772 61.2709 20.064 61.0949 20.44C60.9269 20.808 60.8429 21.24 60.8429 21.736C60.8429 22.256 60.9149 22.704 61.0589 23.08C61.2029 23.456 61.4069 23.744 61.6709 23.944C61.9429 24.136 62.2669 24.232 62.6429 24.232ZM79.3359 20.032C79.0239 19.792 78.6879 19.496 78.3279 19.144C77.9759 18.792 77.6639 18.432 77.3919 18.064L78.1119 17.644C78.3839 17.996 78.6879 18.344 79.0239 18.688C79.3679 19.024 79.7239 19.344 80.0919 19.648C80.4679 19.944 80.8319 20.208 81.1839 20.44C80.8319 20.664 80.4679 20.928 80.0919 21.232C79.7239 21.536 79.3679 21.86 79.0239 22.204C78.6879 22.54 78.3839 22.884 78.1119 23.236L77.3919 22.816C77.6639 22.448 77.9759 22.088 78.3279 21.736C78.6879 21.376 79.0239 21.08 79.3359 20.848H70.0839V20.032H79.3359Z" fill="#212121"/>
</svg>
