<svg width="97" height="24" viewBox="0 0 97 24" fill="none" xmlns="http://www.w3.org/2000/svg">
<path d="M35.3154 2.05713H47.5934V6.02161H40.1732V10.1309H47.5934V14.0954H40.1732V18.2067H47.5934V22.1712H35.3154V2.05713Z" fill="#1E6EF5"/>
<path d="M21.0246 2.05713H33.3026V6.02161H25.8825V10.1309H33.3026V14.0954H25.8825V18.2067H33.3026V22.1712H21.0246V2.05713Z" fill="#1E6EF5"/>
<path d="M49.6062 22.1712V2.05713H57.3463C61.2914 2.05713 64.5008 5.2965 64.5008 9.27707C64.5008 13.2577 61.2914 16.497 57.3463 16.497H54.4711V22.1702H49.6062V22.1712ZM54.4711 12.5335H56.4617C58.244 12.5335 59.6932 11.0733 59.6932 9.27808C59.6932 7.4829 58.244 6.02262 56.4617 6.02262H54.4711V12.5345V12.5335Z" fill="#1E6EF5"/>
<path d="M65.6078 2.05713H77.8858V6.02161H70.4656V10.1309H77.8858V14.0954H70.4656V18.2067H77.8858V22.1712H65.6078V2.05713Z" fill="#1E6EF5"/>
<path d="M89.3224 22.1712L86.6323 16.498H84.7645V22.1712H79.8996V2.05713H87.6397C91.5848 2.05713 94.7942 5.2965 94.7942 9.27707C94.7942 11.6696 93.6227 13.9023 91.6593 15.2499L91.3644 15.4521L94.5506 22.1702H89.3224V22.1712ZM84.7635 12.5335H86.7541C88.5364 12.5335 89.9856 11.0733 89.9856 9.27808C89.9856 7.4829 88.5364 6.02262 86.7541 6.02262H84.7635V12.5345V12.5335Z" fill="#1E6EF5"/>
<path d="M13.2694 22.1712L9.43198 14.0954H7.08105V22.1712H2.20508V2.05713H7.08105V10.145H9.42594L13.2694 2.05713H18.9686L12.6897 14.0954H15.3777L19.0118 22.1712H13.2694Z" fill="#1E6EF5"/>
<path d="M17.8545 11.3016C17.2164 11.3016 16.6971 10.7826 16.6971 10.145C16.6971 9.50738 17.2164 8.98844 17.8545 8.98844C18.4925 8.98844 19.0118 9.50738 19.0118 10.145C19.0118 10.7826 18.4925 11.3016 17.8545 11.3016Z" fill="#1E6EF5"/>
</svg>
